<svg xmlns="http://www.w3.org/2000/svg" xmlns:xlink="http://www.w3.org/1999/xlink" version="1.1" width="1080" height="1080" viewBox="0 0 1080 1080" xml:space="preserve">
    <desc>Created with Fabric.js 5.2.4</desc>
        <defs>
    </defs>
    <g transform="matrix(1 0 0 1 540 540)" id="571906f1-a6c7-4bda-8b23-8f57618d0705">
    </g>
    <g transform="matrix(1 0 0 1 540 540)" id="65627168-6082-4058-9797-ad4ebd6ffad9">
        <rect style="stroke: none; stroke-width: 1; stroke-dasharray: none; stroke-linecap: butt; stroke-dashoffset: 0; stroke-linejoin: miter; stroke-miterlimit: 4; fill: rgb(10,9,9); fill-rule: nonzero; opacity: 1; visibility: hidden;" vector-effect="non-scaling-stroke" x="-540" y="-540" rx="0" ry="0" width="1080" height="1080"/>
    </g>
    <g transform="matrix(45.54 0 0 45.54 417.07 507.76)">
        <path style="stroke: rgb(0,0,0); stroke-width: 0; stroke-dasharray: none; stroke-linecap: butt; stroke-dashoffset: 0; stroke-linejoin: miter; stroke-miterlimit: 4; fill: rgb(255,255,255); fill-rule: nonzero; opacity: 1;" vector-effect="non-scaling-stroke" transform=" translate(-6, -8.5)" d="M 1.5 16.375 L 10.5 16.375 C 10.8977 16.3747 11.279 16.2561 11.5602 16.0452 C 11.8414 15.8343 11.9996 15.5483 12 15.25 L 12 13.5625 L 10.5 13.5625 L 10.5 15.25 L 1.5 15.25 L 1.5 1.75 L 10.5 1.75 L 10.5 3.4375 L 12 3.4375 L 12 1.75 C 11.9996 1.45172 11.8414 1.16575 11.5602 0.954834 C 11.279 0.74392 10.8977 0.625298 10.5 0.625 L 1.5 0.625 C 1.1023 0.625298 0.720997 0.74392 0.439779 0.954834 C 0.15856 1.16575 0.000397108 1.45172 0 1.75 L 0 15.25 C 0.000397108 15.5483 0.15856 15.8343 0.439779 16.0452 C 0.720997 16.2561 1.1023 16.3747 1.5 16.375 Z" stroke-linecap="round"/>
    </g>
    <g transform="matrix(45.54 0 0 45.54 663.01 507.76)">
        <path style="stroke: rgb(0,0,0); stroke-width: 0; stroke-dasharray: none; stroke-linecap: butt; stroke-dashoffset: 0; stroke-linejoin: miter; stroke-miterlimit: 4; fill: rgb(255,255,255); fill-rule: nonzero; opacity: 1;" vector-effect="non-scaling-stroke" transform=" translate(-7.25, -3.5)" d="M 8.4395 6.07963 L 11.129 4.0625 L 0.5 4.0625 L 0.5 2.9375 L 11.129 2.9375 L 8.4395 0.920375 L 9.5 0.125 L 14 3.5 L 9.5 6.875 L 8.4395 6.07963 Z" stroke-linecap="round"/>
    </g>
</svg>
